ffmpeg version N-82167-g5e96558 Copyright (c) 2000-2016 the FFmpeg developers
  built with gcc 5.4.0 (Ubuntu 5.4.0-6ubuntu1~16.04.2) 20160609
  configuration: --prefix=/root/ffmpeg_build --pkg-config-flags=--static --extra-cflags=-I/root/ffmpeg_build/include --extra-ldflags=-L/root/ffmpeg_build/lib --bindir=/root/bin --enable-gpl --enable-libass --enable-libfdk-aac --enable-libfreetype --enable-libmp3lame --enable-libopus --enable-libtheora --enable-libvorbis --enable-libx264 --enable-libx265 --enable-nonfree
  libavutil      55. 35.100 / 55. 35.100
  libavcodec     57. 65.100 / 57. 65.100
  libavformat    57. 57.100 / 57. 57.100
  libavdevice    57.  2.100 / 57.  2.100
  libavfilter     6. 66.100 /  6. 66.100
  libswscale      4.  3.100 /  4.  3.100
  libswresample   2.  4.100 /  2.  4.100
  libpostproc    54.  2.100 / 54.  2.100
Input #0, matroska,webm, from '/media/yubikiri/bot/queue/3AnimePahe_Detective_Conan_-_032_720p_Fansub.mkv':
  Metadata:
    title           : 3|Text||0|0
    ENCODER         : Lavf57.57.100
  Duration: 00:24:13.91, start: 0.000000, bitrate: 971 kb/s
    Stream #0:0: Video: mpeg4 (Simple Profile), yuv420p, 640x480 [SAR 1:1 DAR 4:3], 23.98 fps, 23.98 tbr, 1k tbn, 23.98 tbc (default)
    Metadata:
      DURATION        : 00:24:13.913000000
    Stream #0:1: Audio: mp3, 48000 Hz, stereo, s16p, 128 kb/s (default)
    Metadata:
      DURATION        : 00:24:13.224000000
[libx264 @ 0x33cd1c0] using SAR=1/1
[libx264 @ 0x33cd1c0] using cpu capabilities: MMX2 SSE2Fast SSSE3 SSE4.2 AVX FMA3 AVX2 LZCNT BMI2
[libx264 @ 0x33cd1c0] profile High, level 3.1
[libx264 @ 0x33cd1c0] 264 - core 148 r2643 5c65704 - H.264/MPEG-4 AVC codec - Copyleft 2003-2015 - http://www.videolan.org/x264.html - options: cabac=1 ref=8 deblock=1:1:1 analyse=0x3:0x133 me=umh subme=7 psy=1 psy_rd=0.00:0.00 mixed_ref=1 me_range=8 chroma_me=1 trellis=0 8x8dct=1 cqm=0 deadzone=21,11 fast_pskip=1 chroma_qp_offset=0 threads=8 lookahead_threads=2 sliced_threads=0 nr=0 decimate=1 interlaced=0 bluray_compat=0 constrained_intra=0 bframes=3 b_pyramid=2 b_adapt=2 b_bias=0 direct=1 weightb=1 open_gop=0 weightp=2 keyint=240 keyint_min=24 scenecut=40 intra_refresh=0 rc_lookahead=60 rc=crf mbtree=1 crf=27.0 qcomp=0.60 qpmin=0 qpmax=69 qpstep=4 ip_ratio=1.40 aq=1:1.00
[libfdk_aac @ 0x3343340] Note, the VBR setting is unsupported and only works with some parameter combinations
Output #0, mp4, to '/media/yubikiri/bot/queue/3AnimePahe_Detective_Conan_-_032_720p_Fansub.mkv_encoded.mp4':
  Metadata:
    encoder         : Lavf57.57.100
    Stream #0:0: Video: h264 (libx264) ([33][0][0][0] / 0x0021), yuv420p, 640x480 [SAR 1:1 DAR 4:3], q=-1--1, 23.98 fps, 11988 tbn, 23.98 tbc (default)
    Metadata:
      encoder         : Lavc57.65.100 libx264
    Side data:
      cpb: bitrate max/min/avg: 0/0/0 buffer size: 0 vbv_delay: -1
    Stream #0:1: Audio: aac (libfdk_aac) (HE-AACv2) ([64][0][0][0] / 0x0040), 48000 Hz, stereo, s16, 48 kb/s (default)
    Metadata:
      encoder         : Lavc57.65.100 libfdk_aac
Stream mapping:
  Stream #0:0 -> #0:0 (mpeg4 (native) -> h264 (libx264))
  Stream #0:1 -> #0:1 (mp3 (native) -> aac (libfdk_aac))
Press [q] to stop, [?] for help
frame=  107 fps=0.0 q=32.0 size=     103kB time=00:00:04.63 bitrate= 182.7kbits/s dup=1 drop=0 speed=9.25x    frame=  172 fps=172 q=32.0 size=     302kB time=00:00:07.36 bitrate= 336.3kbits/s dup=1 drop=0 speed=7.34x    frame=  252 fps=168 q=32.0 size=     498kB time=00:00:10.68 bitrate= 381.6kbits/s dup=1 drop=0 speed=7.11x    frame=  313 fps=156 q=32.0 size=     692kB time=00:00:13.20 bitrate= 429.1kbits/s dup=1 drop=0 speed=6.59x    frame=  402 fps=160 q=32.0 size=     875kB time=00:00:16.91 bitrate= 423.6kbits/s dup=1 drop=0 speed=6.74x    frame=  491 fps=162 q=32.0 size=    1083kB time=00:00:20.63 bitrate= 429.9kbits/s dup=1 drop=0 speed= 6.8x    frame=  598 fps=169 q=32.0 size=    1259kB time=00:00:25.11 bitrate= 410.7kbits/s dup=1 drop=0 speed=7.11x    frame=  725 fps=179 q=32.0 size=    1436kB time=00:00:30.40 bitrate= 387.0kbits/s dup=1 drop=0 speed=7.51x    frame=  815 fps=179 q=32.0 size=    1658kB time=00:00:34.15 bitrate= 397.6kbits/s dup=1 drop=0 speed=7.51x    frame=  907 fps=180 q=32.0 size=    1838kB time=00:00:37.99 bitrate= 396.3kbits/s dup=1 drop=0 speed=7.52x    frame=  993 fps=179 q=32.0 size=    2004kB time=00:00:41.57 bitrate= 394.7kbits/s dup=1 drop=0 speed=7.49x    frame= 1095 fps=181 q=32.0 size=    2204kB time=00:00:45.84 bitrate= 393.8kbits/s dup=1 drop=0 speed=7.58x    frame= 1205 fps=184 q=32.0 size=    2380kB time=00:00:50.41 bitrate= 386.7kbits/s dup=1 drop=0 speed=7.69x    frame= 1277 fps=181 q=32.0 size=    2558kB time=00:00:53.44 bitrate= 392.1kbits/s dup=1 drop=0 speed=7.57x    frame= 1337 fps=177 q=32.0 size=    2749kB time=00:00:55.91 bitrate= 402.7kbits/s dup=1 drop=0 speed=7.39x    frame= 1409 fps=175 q=32.0 size=    2919kB time=00:00:58.90 bitrate= 406.0kbits/s dup=1 drop=0 speed= 7.3x    frame= 1493 fps=173 q=32.0 size=    3089kB time=00:01:02.44 bitrate= 405.3kbits/s dup=1 drop=0 speed=7.24x    frame= 1586 fps=174 q=32.0 size=    3241kB time=00:01:06.32 bitrate= 400.3kbits/s dup=1 drop=0 speed=7.27x    frame= 1655 fps=172 q=32.0 size=    3458kB time=00:01:09.18 bitrate= 409.5kbits/s dup=1 drop=0 speed=7.19x    frame= 1728 fps=171 q=32.0 size=    3617kB time=00:01:12.21 bitrate= 410.3kbits/s dup=1 drop=0 speed=7.13x    frame= 1776 fps=167 q=32.0 size=    3804kB time=00:01:14.21 bitrate= 419.9kbits/s dup=1 drop=0 speed=6.98x    frame= 1836 fps=165 q=32.0 size=    3953kB time=00:01:16.73 bitrate= 422.0kbits/s dup=1 drop=0 speed=6.89x    frame= 1899 fps=163 q=32.0 size=    4150kB time=00:01:19.38 bitrate= 428.3kbits/s dup=1 drop=0 speed=6.81x    frame= 1959 fps=161 q=32.0 size=    4303kB time=00:01:21.85 bitrate= 430.6kbits/s dup=1 drop=0 speed=6.74x    frame= 2011 fps=159 q=32.0 size=    4459kB time=00:01:24.03 bitrate= 434.7kbits/s dup=1 drop=0 speed=6.64x    frame= 2075 fps=158 q=32.0 size=    4602kB time=00:01:26.72 bitrate= 434.7kbits/s dup=1 drop=0 speed=6.59x    frame= 2150 fps=157 q=32.0 size=    4737kB time=00:01:29.83 bitrate= 431.9kbits/s dup=1 drop=0 speed=6.58x    frame= 2321 fps=164 q=32.0 size=    4875kB time=00:01:36.96 bitrate= 411.9kbits/s dup=1 drop=0 speed=6.85x    frame= 2458 fps=168 q=32.0 size=    5036kB time=00:01:42.67 bitrate= 401.8kbits/s dup=1 drop=0 speed=7.01x    frame= 2545 fps=168 q=32.0 size=    5165kB time=00:01:46.30 bitrate= 398.0kbits/s dup=1 drop=0 speed=7.01x    frame= 2642 fps=168 q=32.0 size=    5296kB time=00:01:50.35 bitrate= 393.1kbits/s dup=1 drop=0 speed=7.03x    frame= 2752 fps=170 q=32.0 size=    5469kB time=00:01:54.92 bitrate= 389.9kbits/s dup=1 drop=0 speed=7.09x    frame= 2881 fps=172 q=32.0 size=    5597kB time=00:02:00.29 bitrate= 381.1kbits/s dup=1 drop=0 speed=7.19x    frame= 3007 fps=174 q=32.0 size=    5739kB time=00:02:05.54 bitrate= 374.5kbits/s dup=1 drop=0 speed=7.28x    frame= 3088 fps=174 q=32.0 size=    5855kB time=00:02:08.96 bitrate= 371.9kbits/s dup=1 drop=0 speed=7.27x    frame= 3171 fps=174 q=32.0 size=    5991kB time=00:02:12.41 bitrate= 370.7kbits/s dup=1 drop=0 speed=7.26x    frame= 3266 fps=174 q=32.0 size=    6067kB time=00:02:16.38 bitrate= 364.4kbits/s dup=1 drop=0 speed=7.28x    frame= 3342 fps=173 q=32.0 size=    6110kB time=00:02:19.54 bitrate= 358.7kbits/s dup=1 drop=0 speed=7.24x    frame= 3368 fps=170 q=32.0 size=    6292kB time=00:02:20.65 bitrate= 366.4kbits/s dup=1 drop=0 speed=7.11x    frame= 3401 fps=167 q=32.0 size=    6429kB time=00:02:22.01 bitrate= 370.9kbits/s dup=1 drop=0 speed=6.99x    frame= 3439 fps=165 q=32.0 size=    6617kB time=00:02:23.59 bitrate= 377.5kbits/s dup=1 drop=0 speed= 6.9x    frame= 3494 fps=164 q=32.0 size=    6737kB time=00:02:25.89 bitrate= 378.3kbits/s dup=1 drop=0 speed=6.85x    frame= 3542 fps=162 q=32.0 size=    6826kB time=00:02:27.90 bitrate= 378.1kbits/s dup=1 drop=0 speed=6.78x    frame= 3615 fps=162 q=32.0 size=    6926kB time=00:02:30.93 bitrate= 375.9kbits/s dup=1 drop=0 speed=6.76x    frame= 3704 fps=162 q=32.0 size=    7047kB time=00:02:34.64 bitrate= 373.3kbits/s dup=1 drop=0 speed=6.77x    frame= 3808 fps=163 q=32.0 size=    7155kB time=00:02:38.95 bitrate= 368.8kbits/s dup=1 drop=0 speed= 6.8x    frame= 3900 fps=163 q=32.0 size=    7260kB time=00:02:42.79 bitrate= 365.3kbits/s dup=1 drop=0 speed=6.82x    frame= 3957 fps=162 q=32.0 size=    7346kB time=00:02:45.18 bitrate= 364.3kbits/s dup=1 drop=0 speed=6.78x    frame= 4068 fps=164 q=32.0 size=    7456kB time=00:02:49.83 bitrate= 359.6kbits/s dup=1 drop=0 speed=6.83x    frame= 4155 fps=163 q=32.0 size=    7538kB time=00:02:53.46 bitrate= 356.0kbits/s dup=1 drop=0 speed=6.82x    frame= 4218 fps=162 q=32.0 size=    7621kB time=00:02:56.10 bitrate= 354.5kbits/s dup=1 drop=0 speed=6.78x    frame= 4277 fps=161 q=32.0 size=    7705kB time=00:02:58.53 bitrate= 353.5kbits/s dup=1 drop=0 speed=6.74x    frame= 4351 fps=161 q=32.0 size=    7786kB time=00:03:01.61 bitrate= 351.2kbits/s dup=1 drop=0 speed=6.73x    frame= 4424 fps=161 q=32.0 size=    7864kB time=00:03:04.68 bitrate= 348.8kbits/s dup=1 drop=0 speed=6.71x    frame= 4484 fps=160 q=32.0 size=    7924kB time=00:03:07.15 bitrate= 346.8kbits/s dup=1 drop=0 speed=6.68x    frame= 4533 fps=159 q=32.0 size=    8034kB time=00:03:09.20 bitrate= 347.9kbits/s dup=1 drop=0 speed=6.63x    frame= 4607 fps=159 q=32.0 size=    8096kB time=00:03:12.32 bitrate= 344.9kbits/s dup=1 drop=0 speed=6.62x    frame= 4682 fps=158 q=32.0 size=    8209kB time=00:03:15.43 bitrate= 344.1kbits/s dup=1 drop=0 speed=6.61x    frame= 4751 fps=158 q=32.0 size=    8293kB time=00:03:18.29 bitrate= 342.6kbits/s dup=1 drop=0 speed= 6.6x    frame= 4828 fps=158 q=32.0 size=    8366kB time=00:03:21.53 bitrate= 340.1kbits/s dup=1 drop=0 speed=6.59x    frame= 4898 fps=158 q=32.0 size=    8471kB time=00:03:24.43 bitrate= 339.4kbits/s dup=1 drop=0 speed=6.58x    frame= 4975 fps=158 q=32.0 size=    8584kB time=00:03:27.63 bitrate= 338.7kbits/s dup=1 drop=0 speed=6.58x    frame= 5053 fps=158 q=32.0 size=    8676kB time=00:03:30.92 bitrate= 337.0kbits/s dup=1 drop=0 speed=6.58x    frame= 5109 fps=157 q=32.0 size=    8778kB time=00:03:33.22 bitrate= 337.2kbits/s dup=1 drop=0 speed=6.54x    frame= 5176 fps=156 q=32.0 size=    8896kB time=00:03:36.04 bitrate= 337.3kbits/s dup=1 drop=0 speed=6.53x    frame= 5250 fps=156 q=32.0 size=    8990kB time=00:03:39.11 bitrate= 336.1kbits/s dup=1 drop=0 speed=6.52x    frame= 5312 fps=156 q=32.0 size=    9086kB time=00:03:41.71 bitrate= 335.7kbits/s dup=1 drop=0 speed= 6.5x    frame= 5384 fps=155 q=32.0 size=    9161kB time=00:03:44.70 bitrate= 334.0kbits/s dup=1 drop=0 speed=6.49x    frame= 5454 fps=155 q=32.0 size=    9230kB time=00:03:47.64 bitrate= 332.1kbits/s dup=1 drop=0 speed=6.48x    frame= 5508 fps=155 q=32.0 size=    9329kB time=00:03:49.91 bitrate= 332.4kbits/s dup=1 drop=0 speed=6.45x    frame= 5561 fps=154 q=32.0 size=    9416kB time=00:03:52.08 bitrate= 332.4kbits/s dup=1 drop=0 speed=6.42x    frame= 5625 fps=153 q=32.0 size=    9494kB time=00:03:54.77 bitrate= 331.3kbits/s dup=1 drop=0 speed= 6.4x    frame= 5694 fps=153 q=32.0 size=    9596kB time=00:03:57.63 bitrate= 330.8kbits/s dup=1 drop=0 speed=6.39x    frame= 5774 fps=153 q=32.0 size=    9706kB time=00:04:01.00 bitrate= 329.9kbits/s dup=1 drop=0 speed=6.39x    frame= 5840 fps=153 q=29.0 size=    9796kB time=00:04:03.73 bitrate= 329.3kbits/s dup=1 drop=0 speed=6.38x    frame= 5894 fps=152 q=32.0 size=    9927kB time=00:04:05.99 bitrate= 330.6kbits/s dup=1 drop=0 speed=6.35x    frame= 5957 fps=152 q=32.0 size=   10046kB time=00:04:08.59 bitrate= 331.0kbits/s dup=1 drop=0 speed=6.34x    frame= 6037 fps=152 q=32.0 size=   10145kB time=00:04:11.96 bitrate= 329.8kbits/s dup=1 drop=0 speed=6.34x    frame= 6099 fps=152 q=32.0 size=   10244kB time=00:04:14.52 bitrate= 329.7kbits/s dup=1 drop=0 speed=6.32x    frame= 6150 fps=151 q=32.0 size=   10338kB time=00:04:16.66 bitrate= 330.0kbits/s dup=1 drop=0 speed= 6.3x    frame= 6226 fps=151 q=32.0 size=   10456kB time=00:04:19.81 bitrate= 329.7kbits/s dup=1 drop=0 speed= 6.3x    frame= 6280 fps=150 q=32.0 size=   10572kB time=00:04:22.08 bitrate= 330.4kbits/s dup=1 drop=0 speed=6.28x    frame= 6367 fps=151 q=32.0 size=   10654kB time=00:04:25.70 bitrate= 328.5kbits/s dup=1 drop=0 speed=6.29x    frame= 6423 fps=150 q=32.0 size=   10765kB time=00:04:28.09 bitrate= 328.9kbits/s dup=1 drop=0 speed=6.27x    frame= 6492 fps=150 q=32.0 size=   10859kB time=00:04:30.95 bitrate= 328.3kbits/s dup=1 drop=0 speed=6.26x    frame= 6546 fps=150 q=32.0 size=   10955kB time=00:04:33.17 bitrate= 328.5kbits/s dup=1 drop=0 speed=6.24x    frame= 6611 fps=149 q=32.0 size=   11034kB time=00:04:35.90 bitrate= 327.6kbits/s dup=1 drop=0 speed=6.23x    frame= 6694 fps=149 q=32.0 size=   11170kB time=00:04:39.36 bitrate= 327.5kbits/s dup=1 drop=0 speed=6.24x    frame= 6768 fps=149 q=32.0 size=   11269kB time=00:04:42.43 bitrate= 326.8kbits/s dup=1 drop=0 speed=6.24x    frame= 6832 fps=149 q=32.0 size=   11349kB time=00:04:45.12 bitrate= 326.1kbits/s dup=1 drop=0 speed=6.22x    frame= 6912 fps=149 q=32.0 size=   11452kB time=00:04:48.44 bitrate= 325.2kbits/s dup=1 drop=0 speed=6.23x    frame= 7006 fps=150 q=32.0 size=   11565kB time=00:04:52.37 bitrate= 324.0kbits/s dup=1 drop=0 speed=6.25x    frame= 7090 fps=150 q=32.0 size=   11637kB time=00:04:55.91 bitrate= 322.2kbits/s dup=1 drop=0 speed=6.25x    frame= 7146 fps=149 q=32.0 size=   11763kB time=00:04:58.21 bitrate= 323.1kbits/s dup=1 drop=0 speed=6.23x    frame= 7226 fps=149 q=32.0 size=   11869kB time=00:05:01.54 bitrate= 322.4kbits/s dup=1 drop=0 speed=6.24x    frame= 7279 fps=149 q=32.0 size=   12002kB time=00:05:03.72 bitrate= 323.7kbits/s dup=1 drop=0 speed=6.21x    frame= 7348 fps=149 q=32.0 size=   12115kB time=00:05:06.62 bitrate= 323.7kbits/s dup=1 drop=0 speed=6.21x    frame= 7436 fps=149 q=32.0 size=   12216kB time=00:05:10.33 bitrate= 322.5kbits/s dup=1 drop=0 speed=6.22x    frame= 7524 fps=149 q=32.0 size=   12346kB time=00:05:13.96 bitrate= 322.1kbits/s dup=1 drop=0 speed=6.23x    frame= 7598 fps=149 q=32.0 size=   12447kB time=00:05:17.07 bitrate= 321.6kbits/s dup=1 drop=0 speed=6.23x    frame= 7669 fps=149 q=32.0 size=   12601kB time=00:05:20.02 bitrate= 322.6kbits/s dup=1 drop=0 speed=6.22x    frame= 7767 fps=150 q=32.0 size=   12730kB time=00:05:24.11 bitrate= 321.7kbits/s dup=1 drop=0 speed=6.24x    frame= 7853 fps=150 q=32.0 size=   12844kB time=00:05:27.70 bitrate= 321.1kbits/s dup=1 drop=0 speed=6.24x    frame= 7919 fps=149 q=32.0 size=   12981kB time=00:05:30.43 bitrate= 321.8kbits/s dup=1 drop=0 speed=6.24x    frame= 7974 fps=149 q=32.0 size=   13116kB time=00:05:32.73 bitrate= 322.9kbits/s dup=1 drop=0 speed=6.22x    frame= 8060 fps=149 q=32.0 size=   13269kB time=00:05:36.32 bitrate= 323.2kbits/s dup=1 drop=0 speed=6.23x    frame= 8144 fps=149 q=32.0 size=   13387kB time=00:05:39.81 bitrate= 322.7kbits/s dup=1 drop=0 speed=6.23x    frame= 8241 fps=150 q=32.0 size=   13510kB time=00:05:43.87 bitrate= 321.8kbits/s dup=1 drop=0 speed=6.25x    frame= 8337 fps=150 q=32.0 size=   13609kB time=00:05:47.88 bitrate= 320.5kbits/s dup=1 drop=0 speed=6.26x    frame= 8466 fps=151 q=32.0 size=   13717kB time=00:05:53.25 bitrate= 318.1kbits/s dup=1 drop=0 speed= 6.3x    frame= 8546 fps=151 q=32.0 size=   13866kB time=00:05:56.58 bitrate= 318.5kbits/s dup=1 drop=0 speed= 6.3x    frame= 8619 fps=151 q=32.0 size=   13980kB time=00:05:59.65 bitrate= 318.4kbits/s dup=1 drop=0 speed= 6.3x    frame= 8716 fps=151 q=32.0 size=   14129kB time=00:06:03.71 bitrate= 318.2kbits/s dup=1 drop=0 speed=6.32x    frame= 8810 fps=152 q=32.0 size=   14224kB time=00:06:07.59 bitrate= 317.0kbits/s dup=1 drop=0 speed=6.32x    frame= 8885 fps=152 q=32.0 size=   14357kB time=00:06:10.71 bitrate= 317.3kbits/s dup=1 drop=0 speed=6.32x    frame= 8952 fps=151 q=32.0 size=   14479kB time=00:06:13.52 bitrate= 317.5kbits/s dup=1 drop=0 speed=6.31x    frame= 9016 fps=151 q=32.0 size=   14582kB time=00:06:16.21 bitrate= 317.5kbits/s dup=1 drop=0 speed= 6.3x    frame= 9090 fps=151 q=32.0 size=   14720kB time=00:06:19.28 bitrate= 317.9kbits/s dup=1 drop=0 speed= 6.3x    frame= 9167 fps=151 q=32.0 size=   14845kB time=00:06:22.52 bitrate= 317.9kbits/s dup=1 drop=0 speed= 6.3x    frame= 9268 fps=151 q=32.0 size=   14967kB time=00:06:26.75 bitrate= 317.0kbits/s dup=1 drop=0 speed=6.32x    frame= 9363 fps=152 q=32.0 size=   15068kB time=00:06:30.67 bitrate= 316.0kbits/s dup=1 drop=0 speed=6.33x    frame= 9433 fps=152 q=32.0 size=   15191kB time=00:06:33.57 bitrate= 316.2kbits/s dup=1 drop=0 speed=6.33x    frame= 9508 fps=152 q=32.0 size=   15304kB time=00:06:36.69 bitrate= 316.0kbits/s dup=1 drop=0 speed=6.33x    frame= 9584 fps=152 q=32.0 size=   15422kB time=00:06:39.89 bitrate= 315.9kbits/s dup=1 drop=0 speed=6.33x    frame= 9677 fps=152 q=32.0 size=   15561kB time=00:06:43.77 bitrate= 315.7kbits/s dup=1 drop=0 speed=6.34x    frame= 9774 fps=152 q=32.0 size=   15712kB time=00:06:47.78 bitrate= 315.6kbits/s dup=1 drop=0 speed=6.35x    frame= 9867 fps=152 q=32.0 size=   15834kB time=00:06:51.71 bitrate= 315.1kbits/s dup=1 drop=0 speed=6.36x    frame= 9930 fps=152 q=32.0 size=   15938kB time=00:06:54.31 bitrate= 315.1kbits/s dup=1 drop=0 speed=6.35x    frame=10011 fps=152 q=32.0 size=   16024kB time=00:06:57.68 bitrate= 314.3kbits/s dup=1 drop=0 speed=6.36x    frame=10102 fps=153 q=32.0 size=   16138kB time=00:07:01.48 bitrate= 313.7kbits/s dup=1 drop=0 speed=6.37x    frame=10193 fps=153 q=32.0 size=   16246kB time=00:07:05.32 bitrate= 312.9kbits/s dup=1 drop=0 speed=6.37x    frame=10271 fps=153 q=32.0 size=   16354kB time=00:07:08.52 bitrate= 312.6kbits/s dup=1 drop=0 speed=6.38x    frame=10346 fps=153 q=32.0 size=   16461kB time=00:07:11.68 bitrate= 312.4kbits/s dup=1 drop=0 speed=6.37x    frame=10427 fps=153 q=32.0 size=   16598kB time=00:07:15.05 bitrate= 312.5kbits/s dup=1 drop=0 speed=6.37x    frame=10506 fps=153 q=32.0 size=   16707kB time=00:07:18.37 bitrate= 312.2kbits/s dup=1 drop=0 speed=6.38x    frame=10551 fps=152 q=32.0 size=   16820kB time=00:07:20.21 bitrate= 313.0kbits/s dup=1 drop=0 speed=6.35x    frame=10641 fps=153 q=32.0 size=   16948kB time=00:07:23.96 bitrate= 312.7kbits/s dup=1 drop=0 speed=6.36x    frame=10712 fps=152 q=32.0 size=   17043kB time=00:07:26.91 bitrate= 312.4kbits/s dup=1 drop=0 speed=6.36x    frame=10779 fps=152 q=32.0 size=   17172kB time=00:07:29.72 bitrate= 312.8kbits/s dup=1 drop=0 speed=6.35x    frame=10873 fps=152 q=32.0 size=   17268kB time=00:07:33.65 bitrate= 311.8kbits/s dup=1 drop=0 speed=6.36x    frame=10950 fps=153 q=32.0 size=   17391kB time=00:07:36.85 bitrate= 311.8kbits/s dup=1 drop=0 speed=6.36x    frame=11009 fps=152 q=32.0 size=   17466kB time=00:07:39.32 bitrate= 311.5kbits/s dup=1 drop=0 speed=6.35x    frame=11086 fps=152 q=32.0 size=   17558kB time=00:07:42.52 bitrate= 311.0kbits/s dup=1 drop=0 speed=6.35x    frame=11169 fps=152 q=32.0 size=   17684kB time=00:07:46.02 bitrate= 310.8kbits/s dup=1 drop=0 speed=6.36x    frame=11248 fps=152 q=32.0 size=   17792kB time=00:07:49.31 bitrate= 310.6kbits/s dup=1 drop=0 speed=6.36x    frame=11337 fps=152 q=32.0 size=   17907kB time=00:07:53.02 bitrate= 310.1kbits/s dup=1 drop=0 speed=6.36x    frame=11413 fps=152 q=32.0 size=   18008kB time=00:07:56.18 bitrate= 309.8kbits/s dup=1 drop=0 speed=6.36x    frame=11483 fps=152 q=32.0 size=   18130kB time=00:07:59.08 bitrate= 310.0kbits/s dup=1 drop=0 speed=6.36x    frame=11565 fps=152 q=32.0 size=   18245kB time=00:08:02.53 bitrate= 309.7kbits/s dup=1 drop=0 speed=6.36x    frame=11647 fps=153 q=32.0 size=   18407kB time=00:08:05.91 bitrate= 310.3kbits/s dup=1 drop=0 speed=6.36x    frame=11713 fps=152 q=32.0 size=   18487kB time=00:08:08.68 bitrate= 309.9kbits/s dup=1 drop=0 speed=6.36x    frame=11787 fps=152 q=32.0 size=   18656kB time=00:08:11.79 bitrate= 310.8kbits/s dup=1 drop=0 speed=6.35x    frame=11851 fps=152 q=32.0 size=   18812kB time=00:08:14.44 bitrate= 311.7kbits/s dup=1 drop=0 speed=6.35x    frame=11928 fps=152 q=32.0 size=   18927kB time=00:08:17.64 bitrate= 311.6kbits/s dup=1 drop=0 speed=6.35x    frame=12002 fps=152 q=32.0 size=   19117kB time=00:08:20.71 bitrate= 312.8kbits/s dup=1 drop=0 speed=6.34x    frame=12088 fps=152 q=32.0 size=   19234kB time=00:08:24.34 bitrate= 312.4kbits/s dup=1 drop=0 speed=6.35x    frame=12152 fps=152 q=32.0 size=   19385kB time=00:08:26.98 bitrate= 313.2kbits/s dup=1 drop=0 speed=6.34x    frame=12231 fps=152 q=32.0 size=   19528kB time=00:08:30.27 bitrate= 313.5kbits/s dup=1 drop=0 speed=6.34x    frame=12307 fps=152 q=32.0 size=   19645kB time=00:08:33.47 bitrate= 313.4kbits/s dup=1 drop=0 speed=6.34x    frame=12366 fps=152 q=32.0 size=   19784kB time=00:08:35.94 bitrate= 314.1kbits/s dup=1 drop=0 speed=6.33x    frame=12407 fps=151 q=32.0 size=   19899kB time=00:08:37.61 bitrate= 314.9kbits/s dup=1 drop=0 speed=6.31x    frame=12456 fps=151 q=32.0 size=   20043kB time=00:08:39.70 bitrate= 315.9kbits/s dup=1 drop=0 speed= 6.3x    frame=12539 fps=151 q=32.0 size=   20167kB time=00:08:43.15 bitrate= 315.8kbits/s dup=1 drop=0 speed= 6.3x    frame=12609 fps=151 q=32.0 size=   20265kB time=00:08:46.05 bitrate= 315.6kbits/s dup=1 drop=0 speed= 6.3x    frame=12687 fps=151 q=32.0 size=   20390kB time=00:08:49.30 bitrate= 315.6kbits/s dup=1 drop=0 speed= 6.3x    frame=12774 fps=151 q=32.0 size=   20495kB time=00:08:52.92 bitrate= 315.0kbits/s dup=1 drop=0 speed= 6.3x    frame=12835 fps=151 q=32.0 size=   20606kB time=00:08:55.48 bitrate= 315.2kbits/s dup=1 drop=0 speed= 6.3x    frame=12893 fps=151 q=32.0 size=   20718kB time=00:08:57.92 bitrate= 315.5kbits/s dup=1 drop=0 speed=6.29x    frame=12987 fps=151 q=32.0 size=   20857kB time=00:09:01.80 bitrate= 315.4kbits/s dup=1 drop=0 speed=6.29x    frame=13091 fps=151 q=32.0 size=   20938kB time=00:09:06.15 bitrate= 314.1kbits/s dup=1 drop=0 speed=6.31x    frame=13187 fps=151 q=32.0 size=   21069kB time=00:09:10.16 bitrate= 313.7kbits/s dup=1 drop=0 speed=6.32x    frame=13289 fps=152 q=32.0 size=   21190kB time=00:09:14.43 bitrate= 313.1kbits/s dup=1 drop=0 speed=6.33x    frame=13391 fps=152 q=32.0 size=   21314kB time=00:09:18.65 bitrate= 312.5kbits/s dup=1 drop=0 speed=6.34x    frame=13494 fps=152 q=32.0 size=   21403kB time=00:09:22.96 bitrate= 311.4kbits/s dup=1 drop=0 speed=6.35x    frame=13600 fps=153 q=32.0 size=   21482kB time=00:09:27.40 bitrate= 310.2kbits/s dup=1 drop=0 speed=6.37x    frame=13692 fps=153 q=32.0 size=   21598kB time=00:09:31.24 bitrate= 309.7kbits/s dup=1 drop=0 speed=6.37x    frame=13764 fps=153 q=32.0 size=   21738kB time=00:09:34.23 bitrate= 310.1kbits/s dup=1 drop=0 speed=6.37x    frame=13851 fps=153 q=32.0 size=   21834kB time=00:09:37.85 bitrate= 309.5kbits/s dup=1 drop=0 speed=6.38x    frame=13919 fps=153 q=32.0 size=   21912kB time=00:09:40.71 bitrate= 309.1kbits/s dup=1 drop=0 speed=6.37x    frame=13998 fps=153 q=32.0 size=   22019kB time=00:09:44.00 bitrate= 308.9kbits/s dup=1 drop=0 speed=6.37x    frame=14070 fps=153 q=32.0 size=   22116kB time=00:09:46.98 bitrate= 308.6kbits/s dup=1 drop=0 speed=6.37x    frame=14127 fps=152 q=32.0 size=   22202kB time=00:09:49.37 bitrate= 308.6kbits/s dup=1 drop=0 speed=6.36x    frame=14183 fps=152 q=32.0 size=   22289kB time=00:09:51.72 bitrate= 308.6kbits/s dup=1 drop=0 speed=6.35x    frame=14244 fps=152 q=32.0 size=   22375kB time=00:09:54.28 bitrate= 308.4kbits/s dup=1 drop=0 speed=6.34x    frame=14295 fps=152 q=32.0 size=   22462kB time=00:09:56.37 bitrate= 308.5kbits/s dup=1 drop=0 speed=6.33x    frame=14347 fps=152 q=32.0 size=   22568kB time=00:09:58.55 bitrate= 308.9kbits/s dup=1 drop=0 speed=6.32x    frame=14434 fps=152 q=32.0 size=   22674kB time=00:10:02.17 bitrate= 308.5kbits/s dup=1 drop=0 speed=6.33x    frame=14526 fps=152 q=32.0 size=   22777kB time=00:10:06.01 bitrate= 307.9kbits/s dup=1 drop=0 speed=6.33x    frame=14617 fps=152 q=32.0 size=   22904kB time=00:10:09.81 bitrate= 307.7kbits/s dup=1 drop=0 speed=6.34x    frame=14696 fps=152 q=32.0 size=   23017kB time=00:10:13.09 bitrate= 307.5kbits/s dup=1 drop=0 speed=6.34x    frame=14770 fps=152 q=32.0 size=   23161kB time=00:10:16.21 bitrate= 307.9kbits/s dup=1 drop=0 speed=6.34x    frame=14855 fps=152 q=32.0 size=   23260kB time=00:10:19.71 bitrate= 307.5kbits/s dup=1 drop=0 speed=6.34x    frame=14953 fps=152 q=32.0 size=   23379kB time=00:10:23.80 bitrate= 307.0kbits/s dup=1 drop=0 speed=6.35x    frame=15038 fps=152 q=32.0 size=   23462kB time=00:10:27.35 bitrate= 306.4kbits/s dup=1 drop=0 speed=6.36x    frame=15128 fps=153 q=32.0 size=   23582kB time=00:10:31.10 bitrate= 306.1kbits/s dup=1 drop=0 speed=6.36x    frame=15219 fps=153 q=32.0 size=   23655kB time=00:10:34.90 bitrate= 305.2kbits/s dup=1 drop=0 speed=6.37x    frame=15290 fps=153 q=32.0 size=   23760kB time=00:10:37.88 bitrate= 305.1kbits/s dup=1 drop=0 speed=6.37x    frame=15363 fps=153 q=32.0 size=   23853kB time=00:10:40.91 bitrate= 304.9kbits/s dup=1 drop=0 speed=6.37x    frame=15453 fps=153 q=32.0 size=   23976kB time=00:10:44.67 bitrate= 304.7kbits/s dup=1 drop=0 speed=6.37x    frame=15543 fps=153 q=32.0 size=   24072kB time=00:10:48.42 bitrate= 304.1kbits/s dup=1 drop=0 speed=6.38x    frame=15636 fps=153 q=32.0 size=   24195kB time=00:10:52.31 bitrate= 303.9kbits/s dup=1 drop=0 speed=6.38x    frame=15733 fps=153 q=32.0 size=   24277kB time=00:10:56.36 bitrate= 303.0kbits/s dup=1 drop=0 speed=6.39x    frame=15820 fps=153 q=32.0 size=   24395kB time=00:10:59.99 bitrate= 302.8kbits/s dup=1 drop=0 speed=6.39x    frame=15928 fps=154 q=32.0 size=   24546kB time=00:11:04.47 bitrate= 302.6kbits/s dup=1 drop=0 speed=6.41x    frame=16012 fps=154 q=32.0 size=   24624kB time=00:11:08.01 bitrate= 302.0kbits/s dup=1 drop=0 speed=6.41x    frame=16076 fps=154 q=32.0 size=   24724kB time=00:11:10.65 bitrate= 302.0kbits/s dup=1 drop=0 speed= 6.4x    frame=16160 fps=154 q=32.0 size=   24865kB time=00:11:14.15 bitrate= 302.1kbits/s dup=1 drop=0 speed=6.41x    frame=16250 fps=154 q=32.0 size=   24953kB time=00:11:17.91 bitrate= 301.5kbits/s dup=1 drop=0 speed=6.41x    frame=16333 fps=154 q=32.0 size=   25044kB time=00:11:21.36 bitrate= 301.1kbits/s dup=1 drop=0 speed=6.41x    frame=16417 fps=154 q=32.0 size=   25183kB time=00:11:24.90 bitrate= 301.2kbits/s dup=1 drop=0 speed=6.42x    frame=16498 fps=154 q=32.0 size=   25278kB time=00:11:28.27 bitrate= 300.9kbits/s dup=1 drop=0 speed=6.42x    frame=16589 fps=154 q=32.0 size=   25365kB time=00:11:32.07 bitrate= 300.2kbits/s dup=1 drop=0 speed=6.42x    frame=16683 fps=154 q=32.0 size=   25477kB time=00:11:35.95 bitrate= 299.9kbits/s dup=1 drop=0 speed=6.43x    frame=16767 fps=154 q=32.0 size=   25600kB time=00:11:39.49 bitrate= 299.8kbits/s dup=1 drop=0 speed=6.43x    frame=16858 fps=154 q=32.0 size=   25684kB time=00:11:43.25 bitrate= 299.2kbits/s dup=1 drop=0 speed=6.44x    frame=16931 fps=154 q=32.0 size=   25761kB time=00:11:46.32 bitrate= 298.8kbits/s dup=1 drop=0 speed=6.44x    frame=17041 fps=155 q=32.0 size=   25848kB time=00:11:50.89 bitrate= 297.9kbits/s dup=1 drop=0 speed=6.45x    frame=17142 fps=155 q=32.0 size=   25923kB time=00:11:55.11 bitrate= 297.0kbits/s dup=1 drop=0 speed=6.46x    frame=17234 fps=155 q=32.0 size=   26026kB time=00:11:58.95 bitrate= 296.5kbits/s dup=1 drop=0 speed=6.46x    frame=17327 fps=155 q=32.0 size=   26087kB time=00:12:02.83 bitrate= 295.7kbits/s dup=1 drop=0 speed=6.47x    frame=17407 fps=155 q=32.0 size=   26185kB time=00:12:06.16 bitrate= 295.4kbits/s dup=1 drop=0 speed=6.47x    frame=17491 fps=155 q=32.0 size=   26292kB time=00:12:09.70 bitrate= 295.2kbits/s dup=1 drop=0 speed=6.47x    frame=17576 fps=155 q=32.0 size=   26378kB time=00:12:13.20 bitrate= 294.7kbits/s dup=1 drop=0 speed=6.47x    frame=17670 fps=155 q=32.0 size=   26479kB time=00:12:17.13 bitrate= 294.3kbits/s dup=1 drop=0 speed=6.48x    frame=17766 fps=155 q=32.0 size=   26632kB time=00:12:21.18 bitrate= 294.4kbits/s dup=1 drop=0 speed=6.49x    frame=17841 fps=155 q=32.0 size=   26727kB time=00:12:24.29 bitrate= 294.2kbits/s dup=1 drop=0 speed=6.48x    frame=17913 fps=155 q=32.0 size=   26846kB time=00:12:27.28 bitrate= 294.3kbits/s dup=1 drop=0 speed=6.48x    frame=17973 fps=155 q=32.0 size=   26992kB time=00:12:29.80 bitrate= 294.9kbits/s dup=1 drop=0 speed=6.48x    frame=18058 fps=155 q=32.0 size=   27116kB time=00:12:33.34 bitrate= 294.9kbits/s dup=1 drop=0 speed=6.48x    frame=18137 fps=155 q=32.0 size=   27253kB time=00:12:36.63 bitrate= 295.1kbits/s dup=1 drop=0 speed=6.47x    frame=18209 fps=155 q=32.0 size=   27319kB time=00:12:39.61 bitrate= 294.6kbits/s dup=1 drop=0 speed=6.47x    frame=18269 fps=155 q=32.0 size=   27440kB time=00:12:42.13 bitrate= 294.9kbits/s dup=1 drop=0 speed=6.46x    frame=18334 fps=155 q=32.0 size=   27545kB time=00:12:44.82 bitrate= 295.0kbits/s dup=1 drop=0 speed=6.46x    frame=18382 fps=154 q=32.0 size=   27631kB time=00:12:46.82 bitrate= 295.2kbits/s dup=1 drop=0 speed=6.44x    frame=18427 fps=154 q=32.0 size=   27719kB time=00:12:48.70 bitrate= 295.4kbits/s dup=1 drop=0 speed=6.43x    frame=18487 fps=154 q=32.0 size=   27837kB time=00:12:51.22 bitrate= 295.7kbits/s dup=1 drop=0 speed=6.43x    frame=18538 fps=154 q=32.0 size=   27941kB time=00:12:53.35 bitrate= 296.0kbits/s dup=1 drop=0 speed=6.42x    frame=18608 fps=154 q=32.0 size=   28055kB time=00:12:56.25 bitrate= 296.1kbits/s dup=1 drop=0 speed=6.41x    frame=18696 fps=154 q=32.0 size=   28132kB time=00:12:59.92 bitrate= 295.5kbits/s dup=1 drop=0 speed=6.42x    frame=18779 fps=154 q=32.0 size=   28224kB time=00:13:03.42 bitrate= 295.1kbits/s dup=1 drop=0 speed=6.42x    frame=18848 fps=154 q=32.0 size=   28346kB time=00:13:06.28 bitrate= 295.3kbits/s dup=1 drop=0 speed=6.42x    frame=18932 fps=154 q=32.0 size=   28449kB time=00:13:09.78 bitrate= 295.1kbits/s dup=1 drop=0 speed=6.42x    frame=19020 fps=154 q=32.0 size=   28551kB time=00:13:13.45 bitrate= 294.8kbits/s dup=1 drop=0 speed=6.42x    frame=19105 fps=154 q=32.0 size=   28663kB time=00:13:16.99 bitrate= 294.6kbits/s dup=1 drop=0 speed=6.42x    frame=19180 fps=154 q=32.0 size=   28769kB time=00:13:20.15 bitrate= 294.5kbits/s dup=1 drop=0 speed=6.42x    frame=19248 fps=154 q=32.0 size=   28868kB time=00:13:22.96 bitrate= 294.5kbits/s dup=1 drop=0 speed=6.42x    frame=19334 fps=154 q=32.0 size=   29011kB time=00:13:26.55 bitrate= 294.7kbits/s dup=1 drop=0 speed=6.42x    frame=19422 fps=154 q=32.0 size=   29116kB time=00:13:30.21 bitrate= 294.4kbits/s dup=1 drop=0 speed=6.42x    frame=19510 fps=154 q=32.0 size=   29216kB time=00:13:33.88 bitrate= 294.1kbits/s dup=1 drop=0 speed=6.43x    frame=19594 fps=154 q=32.0 size=   29338kB time=00:13:37.43 bitrate= 294.0kbits/s dup=1 drop=0 speed=6.43x    frame=19678 fps=154 q=32.0 size=   29475kB time=00:13:40.88 bitrate= 294.1kbits/s dup=1 drop=0 speed=6.43x    frame=19756 fps=154 q=32.0 size=   29610kB time=00:13:44.17 bitrate= 294.3kbits/s dup=1 drop=0 speed=6.43x    frame=19821 fps=154 q=32.0 size=   29739kB time=00:13:46.85 bitrate= 294.6kbits/s dup=1 drop=0 speed=6.43x    frame=19882 fps=154 q=32.0 size=   29853kB time=00:13:49.41 bitrate= 294.9kbits/s dup=1 drop=0 speed=6.42x    frame=19967 fps=154 q=32.0 size=   29971kB time=00:13:52.96 bitrate= 294.8kbits/s dup=1 drop=0 speed=6.42x    frame=20070 fps=154 q=32.0 size=   30084kB time=00:13:57.22 bitrate= 294.4kbits/s dup=1 drop=0 speed=6.43x    frame=20156 fps=154 q=32.0 size=   30211kB time=00:14:00.85 bitrate= 294.3kbits/s dup=1 drop=0 speed=6.43x    frame=20237 fps=154 q=32.0 size=   30333kB time=00:14:04.18 bitrate= 294.3kbits/s dup=1 drop=0 speed=6.44x    frame=20294 fps=154 q=32.0 size=   30438kB time=00:14:06.61 bitrate= 294.5kbits/s dup=1 drop=0 speed=6.43x    frame=20367 fps=154 q=32.0 size=   30574kB time=00:14:09.64 bitrate= 294.8kbits/s dup=1 drop=0 speed=6.43x    frame=20455 fps=154 q=32.0 size=   30694kB time=00:14:13.27 bitrate= 294.7kbits/s dup=1 drop=0 speed=6.43x    frame=20534 fps=154 q=32.0 size=   30789kB time=00:14:16.59 bitrate= 294.4kbits/s dup=1 drop=0 speed=6.43x    frame=20648 fps=154 q=32.0 size=   30910kB time=00:14:21.37 bitrate= 294.0kbits/s dup=1 drop=0 speed=6.44x    frame=20725 fps=154 q=32.0 size=   31039kB time=00:14:24.57 bitrate= 294.1kbits/s dup=1 drop=0 speed=6.44x    frame=20812 fps=154 q=32.0 size=   31174kB time=00:14:28.20 bitrate= 294.1kbits/s dup=1 drop=0 speed=6.44x    frame=20873 fps=154 q=32.0 size=   31297kB time=00:14:30.72 bitrate= 294.5kbits/s dup=1 drop=0 speed=6.44x    frame=20955 fps=154 q=32.0 size=   31387kB time=00:14:34.13 bitrate= 294.1kbits/s dup=1 drop=0 speed=6.44x    frame=21031 fps=154 q=32.0 size=   31500kB time=00:14:37.33 bitrate= 294.1kbits/s dup=1 drop=0 speed=6.44x    frame=21095 fps=154 q=32.0 size=   31597kB time=00:14:40.02 bitrate= 294.1kbits/s dup=1 drop=0 speed=6.44x    frame=21189 fps=154 q=32.0 size=   31710kB time=00:14:43.94 bitrate= 293.9kbits/s dup=1 drop=0 speed=6.44x    frame=21256 fps=154 q=32.0 size=   31824kB time=00:14:46.72 bitrate= 294.0kbits/s dup=1 drop=0 speed=6.44x    frame=21328 fps=154 q=32.0 size=   31948kB time=00:14:49.70 bitrate= 294.2kbits/s dup=1 drop=0 speed=6.43x    frame=21397 fps=154 q=32.0 size=   32086kB time=00:14:52.56 bitrate= 294.5kbits/s dup=1 drop=0 speed=6.43x    frame=21469 fps=154 q=32.0 size=   32207kB time=00:14:55.59 bitrate= 294.6kbits/s dup=1 drop=0 speed=6.43x    frame=21535 fps=154 q=32.0 size=   32311kB time=00:14:58.32 bitrate= 294.6kbits/s dup=1 drop=0 speed=6.43x    frame=21624 fps=154 q=32.0 size=   32432kB time=00:15:02.03 bitrate= 294.5kbits/s dup=1 drop=0 speed=6.43x    frame=21717 fps=154 q=32.0 size=   32538kB time=00:15:05.96 bitrate= 294.2kbits/s dup=1 drop=0 speed=6.43x    frame=21783 fps=154 q=32.0 size=   32654kB time=00:15:08.69 bitrate= 294.4kbits/s dup=1 drop=0 speed=6.43x    frame=21880 fps=154 q=32.0 size=   32790kB time=00:15:12.74 bitrate= 294.3kbits/s dup=1 drop=0 speed=6.44x    frame=21973 fps=154 q=32.0 size=   32900kB time=00:15:16.58 bitrate= 294.0kbits/s dup=1 drop=0 speed=6.44x    frame=22083 fps=155 q=32.0 size=   33042kB time=00:15:21.19 bitrate= 293.8kbits/s dup=1 drop=0 speed=6.45x    frame=22220 fps=155 q=32.0 size=   33152kB time=00:15:26.91 bitrate= 293.0kbits/s dup=1 drop=0 speed=6.47x    frame=22300 fps=155 q=32.0 size=   33279kB time=00:15:30.28 bitrate= 293.1kbits/s dup=1 drop=0 speed=6.47x    frame=22371 fps=155 q=32.0 size=   33468kB time=00:15:33.22 bitrate= 293.8kbits/s dup=1 drop=0 speed=6.46x    frame=22462 fps=155 q=32.0 size=   33580kB time=00:15:37.02 bitrate= 293.6kbits/s dup=1 drop=0 speed=6.47x    frame=22546 fps=155 q=32.0 size=   33730kB time=00:15:40.52 bitrate= 293.8kbits/s dup=1 drop=0 speed=6.47x    frame=22603 fps=155 q=32.0 size=   33848kB time=00:15:42.87 bitrate= 294.1kbits/s dup=1 drop=0 speed=6.46x    frame=22680 fps=155 q=32.0 size=   33942kB time=00:15:46.11 bitrate= 293.9kbits/s dup=1 drop=0 speed=6.46x    frame=22776 fps=155 q=32.0 size=   34048kB time=00:15:50.12 bitrate= 293.6kbits/s dup=1 drop=0 speed=6.47x    frame=22853 fps=155 q=32.0 size=   34151kB time=00:15:53.32 bitrate= 293.5kbits/s dup=1 drop=0 speed=6.46x    frame=22922 fps=155 q=32.0 size=   34275kB time=00:15:56.22 bitrate= 293.6kbits/s dup=1 drop=0 speed=6.46x    frame=23013 fps=155 q=32.0 size=   34398kB time=00:15:59.97 bitrate= 293.5kbits/s dup=1 drop=0 speed=6.46x    frame=23105 fps=155 q=32.0 size=   34511kB time=00:16:03.81 bitrate= 293.3kbits/s dup=1 drop=0 speed=6.47x    frame=23184 fps=155 q=32.0 size=   34623kB time=00:16:07.10 bitrate= 293.3kbits/s dup=1 drop=0 speed=6.47x    frame=23278 fps=155 q=29.0 size=   34712kB time=00:16:11.03 bitrate= 292.8kbits/s dup=1 drop=0 speed=6.47x    frame=23376 fps=155 q=32.0 size=   34831kB time=00:16:15.12 bitrate= 292.6kbits/s dup=1 drop=0 speed=6.48x    frame=23464 fps=155 q=32.0 size=   34950kB time=00:16:18.79 bitrate= 292.5kbits/s dup=1 drop=0 speed=6.48x    frame=23527 fps=155 q=32.0 size=   35055kB time=00:16:21.44 bitrate= 292.6kbits/s dup=1 drop=0 speed=6.48x    frame=23607 fps=155 q=32.0 size=   35209kB time=00:16:24.76 bitrate= 292.9kbits/s dup=1 drop=0 speed=6.48x    frame=23704 fps=155 q=32.0 size=   35301kB time=00:16:28.82 bitrate= 292.5kbits/s dup=1 drop=0 speed=6.48x    frame=23784 fps=155 q=32.0 size=   35451kB time=00:16:32.15 bitrate= 292.7kbits/s dup=1 drop=0 speed=6.48x    frame=23869 fps=155 q=32.0 size=   35563kB time=00:16:35.69 bitrate= 292.6kbits/s dup=1 drop=0 speed=6.48x    frame=23939 fps=155 q=32.0 size=   35686kB time=00:16:38.63 bitrate= 292.7kbits/s dup=1 drop=0 speed=6.48x    frame=24026 fps=155 q=32.0 size=   35814kB time=00:16:42.21 bitrate= 292.7kbits/s dup=1 drop=0 speed=6.48x    frame=24121 fps=156 q=32.0 size=   35922kB time=00:16:46.18 bitrate= 292.5kbits/s dup=1 drop=0 speed=6.49x    frame=24204 fps=156 q=32.0 size=   36039kB time=00:16:49.68 bitrate= 292.4kbits/s dup=1 drop=0 speed=6.49x    frame=24276 fps=156 q=32.0 size=   36143kB time=00:16:52.67 bitrate= 292.4kbits/s dup=1 drop=0 speed=6.49x    frame=24371 fps=156 q=32.0 size=   36269kB time=00:16:56.64 bitrate= 292.2kbits/s dup=1 drop=0 speed=6.49x    frame=24480 fps=156 q=32.0 size=   36368kB time=00:17:01.16 bitrate= 291.7kbits/s dup=1 drop=0 speed= 6.5x    frame=24574 fps=156 q=32.0 size=   36432kB time=00:17:05.13 bitrate= 291.1kbits/s dup=1 drop=0 speed= 6.5x    frame=24650 fps=156 q=32.0 size=   36555kB time=00:17:08.28 bitrate= 291.2kbits/s dup=1 drop=0 speed= 6.5x    frame=24699 fps=156 q=32.0 size=   36634kB time=00:17:10.33 bitrate= 291.3kbits/s dup=1 drop=0 speed=6.49x    frame=24749 fps=156 q=32.0 size=   36714kB time=00:17:12.42 bitrate= 291.3kbits/s dup=1 drop=0 speed=6.49x    frame=24810 fps=155 q=32.0 size=   36828kB time=00:17:14.94 bitrate= 291.5kbits/s dup=1 drop=0 speed=6.48x    frame=24892 fps=155 q=32.0 size=   36909kB time=00:17:18.35 bitrate= 291.2kbits/s dup=1 drop=0 speed=6.48x    frame=24970 fps=155 q=32.0 size=   36978kB time=00:17:21.64 bitrate= 290.8kbits/s dup=1 drop=0 speed=6.48x    frame=25048 fps=155 q=32.0 size=   37097kB time=00:17:24.84 bitrate= 290.9kbits/s dup=1 drop=0 speed=6.48x    frame=25127 fps=155 q=32.0 size=   37183kB time=00:17:28.17 bitrate= 290.6kbits/s dup=1 drop=0 speed=6.48x    frame=25221 fps=155 q=32.0 size=   37264kB time=00:17:32.09 bitrate= 290.2kbits/s dup=1 drop=0 speed=6.49x    frame=25312 fps=156 q=32.0 size=   37377kB time=00:17:35.89 bitrate= 290.0kbits/s dup=1 drop=0 speed=6.49x    frame=25393 fps=156 q=32.0 size=   37492kB time=00:17:39.30 bitrate= 289.9kbits/s dup=1 drop=0 speed=6.49x    frame=25435 fps=155 q=32.0 size=   37606kB time=00:17:41.01 bitrate= 290.4kbits/s dup=1 drop=0 speed=6.48x    frame=25473 fps=155 q=32.0 size=   37758kB time=00:17:42.59 bitrate= 291.1kbits/s dup=1 drop=0 speed=6.47x    frame=25538 fps=155 q=32.0 size=   37879kB time=00:17:45.32 bitrate= 291.3kbits/s dup=1 drop=0 speed=6.47x    frame=25611 fps=155 q=32.0 size=   38031kB time=00:17:48.35 bitrate= 291.6kbits/s dup=1 drop=0 speed=6.46x    frame=25709 fps=155 q=32.0 size=   38149kB time=00:17:52.44 bitrate= 291.4kbits/s dup=1 drop=0 speed=6.47x    frame=25796 fps=155 q=32.0 size=   38287kB time=00:17:56.07 bitrate= 291.5kbits/s dup=1 drop=0 speed=6.47x    frame=25893 fps=155 q=32.0 size=   38392kB time=00:18:00.12 bitrate= 291.2kbits/s dup=1 drop=0 speed=6.47x    frame=25993 fps=155 q=32.0 size=   38505kB time=00:18:04.31 bitrate= 290.9kbits/s dup=1 drop=0 speed=6.48x    frame=26101 fps=156 q=32.0 size=   38611kB time=00:18:08.79 bitrate= 290.5kbits/s dup=1 drop=0 speed=6.49x    frame=26205 fps=156 q=32.0 size=   38728kB time=00:18:13.14 bitrate= 290.2kbits/s dup=1 drop=0 speed=6.49x    frame=26280 fps=156 q=32.0 size=   38858kB time=00:18:16.25 bitrate= 290.4kbits/s dup=1 drop=0 speed=6.49x    frame=26345 fps=156 q=32.0 size=   39017kB time=00:18:18.94 bitrate= 290.9kbits/s dup=1 drop=0 speed=6.49x    frame=26438 fps=156 q=32.0 size=   39091kB time=00:18:22.82 bitrate= 290.4kbits/s dup=1 drop=0 speed=6.49x    frame=26522 fps=156 q=32.0 size=   39202kB time=00:18:26.36 bitrate= 290.3kbits/s dup=1 drop=0 speed=6.49x    frame=26602 fps=156 q=32.0 size=   39325kB time=00:18:29.69 bitrate= 290.3kbits/s dup=1 drop=0 speed=6.49x    frame=26689 fps=156 q=32.0 size=   39437kB time=00:18:33.32 bitrate= 290.2kbits/s dup=1 drop=0 speed= 6.5x    frame=26768 fps=156 q=32.0 size=   39530kB time=00:18:36.60 bitrate= 290.0kbits/s dup=1 drop=0 speed= 6.5x    frame=26856 fps=156 q=32.0 size=   39643kB time=00:18:40.27 bitrate= 289.9kbits/s dup=1 drop=0 speed= 6.5x    frame=26944 fps=156 q=32.0 size=   39713kB time=00:18:43.94 bitrate= 289.5kbits/s dup=1 drop=0 speed= 6.5x    frame=27017 fps=156 q=32.0 size=   39820kB time=00:18:46.97 bitrate= 289.5kbits/s dup=1 drop=0 speed= 6.5x    frame=27110 fps=156 q=32.0 size=   39940kB time=00:18:50.85 bitrate= 289.3kbits/s dup=1 drop=0 speed= 6.5x    frame=27149 fps=156 q=32.0 size=   40121kB time=00:18:52.52 bitrate= 290.2kbits/s dup=1 drop=0 speed=6.49x    frame=27173 fps=155 q=32.0 size=   40302kB time=00:18:53.50 bitrate= 291.3kbits/s dup=1 drop=0 speed=6.48x    frame=27207 fps=155 q=32.0 size=   40520kB time=00:18:54.91 bitrate= 292.5kbits/s dup=1 drop=0 speed=6.47x    frame=27261 fps=155 q=32.0 size=   40699kB time=00:18:57.17 bitrate= 293.2kbits/s dup=1 drop=0 speed=6.46x    frame=27296 fps=155 q=32.0 size=   40849kB time=00:18:58.62 bitrate= 293.9kbits/s dup=1 drop=0 speed=6.45x    frame=27328 fps=154 q=32.0 size=   41048kB time=00:18:59.99 bitrate= 295.0kbits/s dup=1 drop=0 speed=6.44x    frame=27361 fps=154 q=32.0 size=   41213kB time=00:19:01.35 bitrate= 295.8kbits/s dup=1 drop=0 speed=6.43x    frame=27432 fps=154 q=32.0 size=   41382kB time=00:19:04.29 bitrate= 296.2kbits/s dup=1 drop=0 speed=6.43x    frame=27531 fps=154 q=32.0 size=   41527kB time=00:19:08.43 bitrate= 296.2kbits/s dup=1 drop=0 speed=6.43x    frame=27624 fps=154 q=32.0 size=   41626kB time=00:19:12.32 bitrate= 295.9kbits/s dup=1 drop=0 speed=6.44x    frame=27673 fps=154 q=32.0 size=   41716kB time=00:19:14.36 bitrate= 296.0kbits/s dup=1 drop=0 speed=6.43x    frame=27723 fps=154 q=32.0 size=   41810kB time=00:19:16.45 bitrate= 296.2kbits/s dup=1 drop=0 speed=6.42x    frame=27777 fps=154 q=32.0 size=   41910kB time=00:19:18.67 bitrate= 296.3kbits/s dup=1 drop=0 speed=6.42x    frame=27845 fps=154 q=32.0 size=   42030kB time=00:19:21.53 bitrate= 296.4kbits/s dup=1 drop=0 speed=6.42x    frame=27921 fps=154 q=32.0 size=   42117kB time=00:19:24.69 bitrate= 296.2kbits/s dup=1 drop=0 speed=6.42x    frame=28009 fps=154 q=32.0 size=   42278kB time=00:19:28.36 bitrate= 296.4kbits/s dup=1 drop=0 speed=6.42x    frame=28078 fps=154 q=32.0 size=   42405kB time=00:19:31.26 bitrate= 296.6kbits/s dup=1 drop=0 speed=6.42x    frame=28142 fps=154 q=32.0 size=   42504kB time=00:19:33.91 bitrate= 296.6kbits/s dup=1 drop=0 speed=6.41x    frame=28225 fps=154 q=32.0 size=   42646kB time=00:19:37.36 bitrate= 296.7kbits/s dup=1 drop=0 speed=6.41x    frame=28309 fps=154 q=32.0 size=   42795kB time=00:19:40.86 bitrate= 296.9kbits/s dup=1 drop=0 speed=6.41x    frame=28393 fps=154 q=32.0 size=   42938kB time=00:19:44.36 bitrate= 297.0kbits/s dup=1 drop=0 speed=6.42x    frame=28484 fps=154 q=32.0 size=   43087kB time=00:19:48.20 bitrate= 297.1kbits/s dup=1 drop=0 speed=6.42x    frame=28566 fps=154 q=32.0 size=   43180kB time=00:19:51.61 bitrate= 296.9kbits/s dup=1 drop=0 speed=6.42x    frame=28620 fps=154 q=32.0 size=   43354kB time=00:19:53.83 bitrate= 297.5kbits/s dup=1 drop=0 speed=6.41x    frame=28696 fps=154 q=32.0 size=   43479kB time=00:19:57.03 bitrate= 297.5kbits/s dup=1 drop=0 speed=6.41x    frame=28760 fps=154 q=32.0 size=   43607kB time=00:19:59.68 bitrate= 297.8kbits/s dup=1 drop=0 speed=6.41x    frame=28794 fps=153 q=32.0 size=   43740kB time=00:20:01.08 bitrate= 298.3kbits/s dup=1 drop=0 speed= 6.4x    frame=28850 fps=153 q=32.0 size=   43868kB time=00:20:03.43 bitrate= 298.6kbits/s dup=1 drop=0 speed= 6.4x    frame=28908 fps=153 q=32.0 size=   44034kB time=00:20:05.86 bitrate= 299.1kbits/s dup=1 drop=0 speed=6.39x    frame=28993 fps=153 q=32.0 size=   44184kB time=00:20:09.40 bitrate= 299.3kbits/s dup=1 drop=0 speed=6.39x    frame=29080 fps=153 q=32.0 size=   44284kB time=00:20:13.03 bitrate= 299.1kbits/s dup=1 drop=0 speed=6.39x    frame=29170 fps=153 q=32.0 size=   44470kB time=00:20:16.79 bitrate= 299.4kbits/s dup=1 drop=0 speed= 6.4x    frame=29276 fps=153 q=32.0 size=   44587kB time=00:20:21.22 bitrate= 299.1kbits/s dup=1 drop=0 speed= 6.4x    frame=29370 fps=154 q=32.0 size=   44677kB time=00:20:25.11 bitrate= 298.7kbits/s dup=1 drop=0 speed=6.41x    frame=29429 fps=153 q=32.0 size=   44819kB time=00:20:27.58 bitrate= 299.1kbits/s dup=1 drop=0 speed= 6.4x    frame=29489 fps=153 q=32.0 size=   44951kB time=00:20:30.05 bitrate= 299.4kbits/s dup=1 drop=0 speed= 6.4x    frame=29561 fps=153 q=32.0 size=   45074kB time=00:20:33.08 bitrate= 299.4kbits/s dup=1 drop=0 speed= 6.4x    frame=29625 fps=153 q=32.0 size=   45193kB time=00:20:35.77 bitrate= 299.6kbits/s dup=1 drop=0 speed= 6.4x    frame=29680 fps=153 q=32.0 size=   45355kB time=00:20:38.08 bitrate= 300.1kbits/s dup=1 drop=0 speed=6.39x    frame=29727 fps=153 q=32.0 size=   45498kB time=00:20:40.04 bitrate= 300.6kbits/s dup=1 drop=0 speed=6.38x    frame=29775 fps=153 q=32.0 size=   45643kB time=00:20:42.00 bitrate= 301.0kbits/s dup=1 drop=0 speed=6.37x    frame=29825 fps=153 q=32.0 size=   45776kB time=00:20:44.09 bitrate= 301.4kbits/s dup=1 drop=0 speed=6.37x    frame=29872 fps=153 q=32.0 size=   45906kB time=00:20:46.05 bitrate= 301.8kbits/s dup=1 drop=0 speed=6.36x    frame=29925 fps=152 q=32.0 size=   46057kB time=00:20:48.27 bitrate= 302.3kbits/s dup=1 drop=0 speed=6.36x    frame=29964 fps=152 q=32.0 size=   46178kB time=00:20:49.89 bitrate= 302.7kbits/s dup=1 drop=0 speed=6.35x    frame=29989 fps=152 q=32.0 size=   46291kB time=00:20:50.96 bitrate= 303.1kbits/s dup=1 drop=0 speed=6.34x    frame=30018 fps=152 q=29.0 size=   46412kB time=00:20:52.16 bitrate= 303.6kbits/s dup=1 drop=0 speed=6.33x    frame=30077 fps=152 q=32.0 size=   46580kB time=00:20:54.63 bitrate= 304.1kbits/s dup=1 drop=0 speed=6.32x    frame=30143 fps=152 q=32.0 size=   46721kB time=00:20:57.36 bitrate= 304.4kbits/s dup=1 drop=0 speed=6.32x    frame=30221 fps=152 q=32.0 size=   46895kB time=00:21:00.60 bitrate= 304.7kbits/s dup=1 drop=0 speed=6.32x    frame=30323 fps=152 q=32.0 size=   47039kB time=00:21:04.87 bitrate= 304.7kbits/s dup=1 drop=0 speed=6.32x    frame=30412 fps=152 q=32.0 size=   47182kB time=00:21:08.58 bitrate= 304.7kbits/s dup=1 drop=0 speed=6.33x    frame=30456 fps=152 q=32.0 size=   47328kB time=00:21:10.42 bitrate= 305.2kbits/s dup=1 drop=0 speed=6.32x    frame=30498 fps=151 q=32.0 size=   47480kB time=00:21:12.17 bitrate= 305.7kbits/s dup=1 drop=0 speed=6.31x    frame=30545 fps=151 q=32.0 size=   47636kB time=00:21:14.13 bitrate= 306.3kbits/s dup=1 drop=0 speed=6.31x    frame=30585 fps=151 q=32.0 size=   47825kB time=00:21:15.79 bitrate= 307.1kbits/s dup=1 drop=0 speed= 6.3x    frame=30618 fps=151 q=32.0 size=   47949kB time=00:21:17.16 bitrate= 307.6kbits/s dup=1 drop=0 speed=6.29x    frame=30645 fps=150 q=32.0 size=   48132kB time=00:21:18.31 bitrate= 308.5kbits/s dup=1 drop=0 speed=6.28x    frame=30680 fps=150 q=32.0 size=   48300kB time=00:21:19.76 bitrate= 309.2kbits/s dup=1 drop=0 speed=6.27x    frame=30722 fps=150 q=32.0 size=   48447kB time=00:21:21.51 bitrate= 309.7kbits/s dup=1 drop=0 speed=6.26x    frame=30782 fps=150 q=32.0 size=   48586kB time=00:21:24.03 bitrate= 310.0kbits/s dup=1 drop=0 speed=6.26x    frame=30839 fps=150 q=32.0 size=   48763kB time=00:21:26.37 bitrate= 310.5kbits/s dup=1 drop=0 speed=6.25x    frame=30903 fps=150 q=32.0 size=   48867kB time=00:21:29.06 bitrate= 310.5kbits/s dup=1 drop=0 speed=6.25x    frame=30946 fps=150 q=32.0 size=   48979kB time=00:21:30.85 bitrate= 310.8kbits/s dup=1 drop=0 speed=6.24x    frame=30984 fps=149 q=32.0 size=   49112kB time=00:21:32.43 bitrate= 311.3kbits/s dup=1 drop=0 speed=6.24x    frame=31024 fps=149 q=32.0 size=   49247kB time=00:21:34.14 bitrate= 311.7kbits/s dup=1 drop=0 speed=6.23x    frame=31081 fps=149 q=32.0 size=   49365kB time=00:21:36.49 bitrate= 311.9kbits/s dup=1 drop=0 speed=6.22x    frame=31125 fps=149 q=32.0 size=   49483kB time=00:21:38.32 bitrate= 312.2kbits/s dup=1 drop=0 speed=6.22x    frame=31165 fps=149 q=32.0 size=   49637kB time=00:21:39.99 bitrate= 312.8kbits/s dup=1 drop=0 speed=6.21x    frame=31221 fps=149 q=32.0 size=   49761kB time=00:21:42.33 bitrate= 313.0kbits/s dup=1 drop=0 speed=6.21x    frame=31292 fps=149 q=32.0 size=   49891kB time=00:21:45.28 bitrate= 313.1kbits/s dup=1 drop=0 speed=6.21x    frame=31388 fps=149 q=32.0 size=   50013kB time=00:21:49.29 bitrate= 312.9kbits/s dup=1 drop=0 speed=6.21x    frame=31452 fps=149 q=32.0 size=   50123kB time=00:21:51.97 bitrate= 313.0kbits/s dup=1 drop=0 speed=6.21x    frame=31528 fps=149 q=32.0 size=   50230kB time=00:21:55.13 bitrate= 312.9kbits/s dup=1 drop=0 speed=6.21x    frame=31648 fps=149 q=32.0 size=   50346kB time=00:22:00.12 bitrate= 312.4kbits/s dup=1 drop=0 speed=6.22x    frame=31744 fps=149 q=32.0 size=   50485kB time=00:22:04.13 bitrate= 312.3kbits/s dup=1 drop=0 speed=6.22x    frame=31804 fps=149 q=32.0 size=   50608kB time=00:22:06.65 bitrate= 312.5kbits/s dup=1 drop=0 speed=6.22x    frame=31858 fps=149 q=32.0 size=   50703kB time=00:22:08.91 bitrate= 312.6kbits/s dup=1 drop=0 speed=6.21x    frame=31914 fps=149 q=32.0 size=   50793kB time=00:22:11.22 bitrate= 312.6kbits/s dup=1 drop=0 speed=6.21x    frame=31972 fps=149 q=32.0 size=   50927kB time=00:22:13.65 bitrate= 312.8kbits/s dup=1 drop=0 speed=6.21x    frame=32025 fps=149 q=32.0 size=   51054kB time=00:22:15.87 bitrate= 313.1kbits/s dup=1 drop=0 speed= 6.2x    frame=32093 fps=149 q=32.0 size=   51168kB time=00:22:18.68 bitrate= 313.1kbits/s dup=1 drop=0 speed= 6.2x    frame=32158 fps=149 q=32.0 size=   51263kB time=00:22:21.41 bitrate= 313.1kbits/s dup=1 drop=0 speed= 6.2x    frame=32225 fps=149 q=32.0 size=   51363kB time=00:22:24.23 bitrate= 313.0kbits/s dup=1 drop=0 speed= 6.2x    frame=32299 fps=149 q=32.0 size=   51502kB time=00:22:27.26 bitrate= 313.2kbits/s dup=1 drop=0 speed= 6.2x    frame=32352 fps=148 q=32.0 size=   51590kB time=00:22:29.52 bitrate= 313.2kbits/s dup=1 drop=0 speed=6.19x    frame=32407 fps=148 q=32.0 size=   51695kB time=00:22:31.83 bitrate= 313.3kbits/s dup=1 drop=0 speed=6.19x    frame=32467 fps=148 q=32.0 size=   51776kB time=00:22:34.30 bitrate= 313.2kbits/s dup=1 drop=0 speed=6.19x    frame=32519 fps=148 q=32.0 size=   51888kB time=00:22:36.48 bitrate= 313.4kbits/s dup=1 drop=0 speed=6.18x    frame=32571 fps=148 q=32.0 size=   51975kB time=00:22:38.61 bitrate= 313.4kbits/s dup=1 drop=0 speed=6.18x    frame=32619 fps=148 q=32.0 size=   52068kB time=00:22:40.66 bitrate= 313.5kbits/s dup=1 drop=0 speed=6.17x    frame=32669 fps=148 q=32.0 size=   52160kB time=00:22:42.71 bitrate= 313.6kbits/s dup=1 drop=0 speed=6.17x    frame=32724 fps=148 q=32.0 size=   52273kB time=00:22:45.01 bitrate= 313.7kbits/s dup=1 drop=0 speed=6.16x    frame=32777 fps=148 q=32.0 size=   52394kB time=00:22:47.23 bitrate= 313.9kbits/s dup=1 drop=0 speed=6.16x    frame=32830 fps=148 q=32.0 size=   52488kB time=00:22:49.45 bitrate= 314.0kbits/s dup=1 drop=0 speed=6.16x    frame=32888 fps=147 q=32.0 size=   52586kB time=00:22:51.88 bitrate= 314.0kbits/s dup=1 drop=0 speed=6.15x    frame=32946 fps=147 q=32.0 size=   52715kB time=00:22:54.27 bitrate= 314.2kbits/s dup=1 drop=0 speed=6.15x    frame=32998 fps=147 q=32.0 size=   52823kB time=00:22:56.44 bitrate= 314.4kbits/s dup=1 drop=0 speed=6.14x    frame=33054 fps=147 q=32.0 size=   52924kB time=00:22:58.79 bitrate= 314.4kbits/s dup=1 drop=0 speed=6.14x    frame=33108 fps=147 q=32.0 size=   53019kB time=00:23:01.01 bitrate= 314.5kbits/s dup=1 drop=0 speed=6.14x    frame=33171 fps=147 q=32.0 size=   53134kB time=00:23:03.65 bitrate= 314.6kbits/s dup=1 drop=0 speed=6.13x    frame=33242 fps=147 q=32.0 size=   53259kB time=00:23:06.60 bitrate= 314.7kbits/s dup=1 drop=0 speed=6.13x    frame=33326 fps=147 q=32.0 size=   53354kB time=00:23:10.14 bitrate= 314.4kbits/s dup=1 drop=0 speed=6.14x    frame=33419 fps=147 q=32.0 size=   53459kB time=00:23:14.02 bitrate= 314.2kbits/s dup=1 drop=0 speed=6.14x    frame=33540 fps=147 q=32.0 size=   53536kB time=00:23:19.06 bitrate= 313.5kbits/s dup=1 drop=0 speed=6.15x    frame=33587 fps=147 q=32.0 size=   53674kB time=00:23:21.06 bitrate= 313.8kbits/s dup=1 drop=0 speed=6.14x    frame=33631 fps=147 q=32.0 size=   53774kB time=00:23:22.85 bitrate= 314.0kbits/s dup=1 drop=0 speed=6.14x    frame=33682 fps=147 q=32.0 size=   53889kB time=00:23:24.99 bitrate= 314.2kbits/s dup=1 drop=0 speed=6.13x    frame=33753 fps=147 q=32.0 size=   54014kB time=00:23:27.93 bitrate= 314.3kbits/s dup=1 drop=0 speed=6.13x    frame=33840 fps=147 q=32.0 size=   54154kB time=00:23:31.56 bitrate= 314.3kbits/s dup=1 drop=0 speed=6.13x    frame=33931 fps=147 q=32.0 size=   54227kB time=00:23:35.36 bitrate= 313.9kbits/s dup=1 drop=0 speed=6.14x    frame=33987 fps=147 q=32.0 size=   54346kB time=00:23:37.70 bitrate= 314.0kbits/s dup=1 drop=0 speed=6.13x    frame=34056 fps=147 q=32.0 size=   54483kB time=00:23:40.56 bitrate= 314.2kbits/s dup=1 drop=0 speed=6.13x    frame=34114 fps=147 q=32.0 size=   54600kB time=00:23:42.99 bitrate= 314.3kbits/s dup=1 drop=0 speed=6.13x    frame=34175 fps=147 q=32.0 size=   54752kB time=00:23:45.55 bitrate= 314.6kbits/s dup=1 drop=0 speed=6.13x    frame=34238 fps=147 q=32.0 size=   54855kB time=00:23:48.16 bitrate= 314.7kbits/s dup=1 drop=0 speed=6.13x    frame=34298 fps=147 q=32.0 size=   54977kB time=00:23:50.67 bitrate= 314.8kbits/s dup=1 drop=0 speed=6.12x    frame=34345 fps=147 q=32.0 size=   55089kB time=00:23:52.64 bitrate= 315.0kbits/s dup=1 drop=0 speed=6.12x    frame=34402 fps=147 q=32.0 size=   55206kB time=00:23:54.98 bitrate= 315.2kbits/s dup=1 drop=0 speed=6.11x    frame=34505 fps=147 q=32.0 size=   55364kB time=00:23:59.29 bitrate= 315.1kbits/s dup=1 drop=0 speed=6.12x    frame=34730 fps=147 q=32.0 size=   55476kB time=00:24:08.68 bitrate= 313.7kbits/s dup=1 drop=0 speed=6.15x    [mp4 @ 0x3331f20] Starting second pass: moving the moov atom to the beginning of the file
frame=34859 fps=148 q=-1.0 Lsize=   56406kB time=00:24:13.78 bitrate= 317.8kbits/s dup=1 drop=0 speed=6.16x    
video:46449kB audio:9132kB subtitle:0kB other streams:0kB global headers:0kB muxing overhead: 1.484739%
[libx264 @ 0x33cd1c0] frame I:302   Avg QP:21.77  size: 17593
[libx264 @ 0x33cd1c0] frame P:10378 Avg QP:24.90  size:  3128
[libx264 @ 0x33cd1c0] frame B:24179 Avg QP:28.29  size:   405
[libx264 @ 0x33cd1c0] consecutive B-frames:  3.3%  6.7% 17.7% 72.2%
[libx264 @ 0x33cd1c0] mb I  I16..4: 26.2% 47.1% 26.7%
[libx264 @ 0x33cd1c0] mb P  I16..4:  4.9%  4.9%  1.4%  P16..4: 35.3%  5.6%  4.2%  0.2%  0.0%    skip:43.4%
[libx264 @ 0x33cd1c0] mb B  I16..4:  0.3%  0.3%  0.1%  B16..8: 14.9%  0.9%  0.1%  direct: 0.5%  skip:82.8%  L0:43.7% L1:54.4% BI: 1.9%
[libx264 @ 0x33cd1c0] 8x8 transform intra:44.5% inter:58.8%
[libx264 @ 0x33cd1c0] coded y,uvDC,uvAC intra: 30.5% 56.5% 9.3% inter: 2.1% 4.8% 0.1%
[libx264 @ 0x33cd1c0] i16 v,h,dc,p: 44% 31% 17%  8%
[libx264 @ 0x33cd1c0] i8 v,h,dc,ddl,ddr,vr,hd,vl,hu: 23% 17% 41%  3%  3%  4%  3%  3%  3%
[libx264 @ 0x33cd1c0] i4 v,h,dc,ddl,ddr,vr,hd,vl,hu: 29% 18% 19%  5%  6%  7%  6%  6%  5%
[libx264 @ 0x33cd1c0] i8c dc,h,v,p: 43% 25% 24%  8%
[libx264 @ 0x33cd1c0] Weighted P-Frames: Y:1.4% UV:0.9%
[libx264 @ 0x33cd1c0] ref P L0: 61.0%  9.9% 12.9%  4.3%  3.5%  3.0%  2.9%  1.7%  0.6%  0.0%
[libx264 @ 0x33cd1c0] ref B L0: 82.8%  8.1%  4.1%  1.6%  1.3%  1.1%  0.9%
[libx264 @ 0x33cd1c0] ref B L1: 94.1%  5.9%
[libx264 @ 0x33cd1c0] kb/s:261.71
